<svg xmlns="http://www.w3.org/2000/svg" xmlns:xlink="http://www.w3.org/1999/xlink" width="500" zoomAndPan="magnify" viewBox="0 0 375 374.999991" height="500" preserveAspectRatio="xMidYMid meet" version="1.0"><defs><clipPath id="2294661213"><path d="M 80.511719 59.175781 L 326.53125 59.175781 L 326.53125 314 L 80.511719 314 Z M 80.511719 59.175781 " clip-rule="nonzero"/></clipPath><clipPath id="0ff61f9a45"><path d="M 48.359375 45.859375 L 322.449219 45.859375 L 322.449219 329.152344 L 48.359375 329.152344 Z M 48.359375 45.859375 " clip-rule="nonzero"/></clipPath><clipPath id="b0e19e32a7"><path d="M 200.746094 184.285156 L 295.261719 184.285156 L 295.261719 244.714844 L 200.746094 244.714844 Z M 200.746094 184.285156 " clip-rule="nonzero"/></clipPath><clipPath id="14558460ec"><path d="M 211.914062 218.292969 L 299.746094 218.292969 L 299.746094 239.960938 L 211.914062 239.960938 Z M 211.914062 218.292969 " clip-rule="nonzero"/></clipPath><clipPath id="3f8a4f99da"><path d="M 107.230469 182 L 200.914062 182 L 200.914062 244.714844 L 107.230469 244.714844 Z M 107.230469 182 " clip-rule="nonzero"/></clipPath><clipPath id="ba0b6c2fe9"><path d="M 102.035156 215 L 190 215 L 190 240 L 102.035156 240 Z M 102.035156 215 " clip-rule="nonzero"/></clipPath><clipPath id="3ecd3a3ba9"><path d="M 234 130.277344 L 241 130.277344 L 241 137 L 234 137 Z M 234 130.277344 " clip-rule="nonzero"/></clipPath></defs><path fill="#e71f69" d="M 203.820312 295.351562 C 144.425781 295.351562 96.273438 247.203125 96.273438 187.808594 C 96.273438 128.410156 144.425781 80.261719 203.820312 80.261719 C 248.585938 80.261719 286.957031 107.613281 303.148438 146.515625 C 286.964844 100.429688 243.078125 67.386719 191.464844 67.386719 C 126.105469 67.386719 73.121094 120.371094 73.121094 185.730469 C 73.121094 251.089844 126.105469 304.074219 191.464844 304.074219 C 229.058594 304.074219 262.554688 286.542969 284.230469 259.214844 C 264.53125 281.382812 235.808594 295.351562 203.820312 295.351562 " fill-opacity="1" fill-rule="nonzero"/><g clip-path="url(#2294661213)"><path fill="#00adef" d="M 204.8125 67.039062 C 270.292969 74.925781 316.980469 134.398438 309.097656 199.878906 C 301.210938 265.359375 241.734375 312.050781 176.253906 304.164062 C 132.359375 298.875 96.910156 270.402344 80.683594 232.480469 C 97.109375 274.9375 135.835938 307.164062 184.183594 312.988281 C 253.949219 321.386719 317.3125 271.644531 325.71875 201.882812 C 334.117188 132.117188 284.375 68.753906 214.613281 60.351562 C 166.261719 54.527344 120.992188 76.636719 94.953125 113.980469 C 119.71875 80.996094 160.917969 61.753906 204.8125 67.039062 " fill-opacity="1" fill-rule="nonzero"/></g><g clip-path="url(#0ff61f9a45)"><path fill="#00adef" d="M 183.980469 54.335938 C 111.089844 63.117188 59.113281 129.320312 67.894531 202.210938 C 76.671875 275.101562 142.878906 327.078125 215.769531 318.296875 C 264.632812 312.414062 304.09375 280.71875 322.15625 238.503906 C 303.871094 285.765625 260.761719 321.636719 206.941406 328.121094 C 129.28125 337.472656 58.742188 282.101562 49.390625 204.441406 C 40.039062 126.78125 95.410156 56.246094 173.070312 46.890625 C 226.890625 40.410156 277.285156 65.023438 306.269531 106.589844 C 278.699219 69.871094 232.84375 48.453125 183.980469 54.335938 " fill-opacity="1" fill-rule="nonzero"/></g><g clip-path="url(#b0e19e32a7)"><path fill="#36a5dd" d="M 266.652344 184.375 L 295.234375 214.375 C 231.621094 214.507812 200.753906 244.714844 200.753906 244.714844 C 200.753906 244.714844 216.359375 195.226562 266.652344 184.375 " fill-opacity="1" fill-rule="nonzero"/></g><g clip-path="url(#14558460ec)"><path fill="#00609e" d="M 299.746094 237.804688 C 257.871094 227.605469 227.296875 234.398438 211.933594 239.839844 C 224.433594 231.929688 247.429688 220.929688 281.28125 218.425781 L 299.746094 237.804688 " fill-opacity="1" fill-rule="nonzero"/></g><g clip-path="url(#3f8a4f99da)"><path fill="#36a5dd" d="M 137.015625 182.09375 L 107.394531 211.070312 C 170.964844 213.441406 200.753906 244.714844 200.753906 244.714844 C 200.753906 244.714844 186.894531 194.707031 137.015625 182.09375 " fill-opacity="1" fill-rule="nonzero"/></g><g clip-path="url(#ba0b6c2fe9)"><path fill="#00609e" d="M 102.066406 234.328125 C 144.273438 225.605469 174.585938 233.46875 189.75 239.449219 C 177.535156 231.101562 154.941406 219.304688 121.199219 215.609375 L 102.066406 234.328125 " fill-opacity="1" fill-rule="nonzero"/></g><path fill="#ff0568" d="M 273.320312 166.945312 L 269.214844 177.675781 C 242.664062 183.050781 225.3125 199.824219 215.417969 212.972656 C 223.78125 197.75 241.371094 174.511719 273.320312 166.945312 " fill-opacity="1" fill-rule="nonzero"/><path fill="#ff0568" d="M 129.269531 163.992188 L 133.015625 174.925781 C 160.328125 180.882812 177.589844 198.703125 187.214844 212.476562 C 179.253906 196.691406 162.03125 172.277344 129.269531 163.992188 " fill-opacity="1" fill-rule="nonzero"/><path fill="#00609e" d="M 201.5 202.21875 C 201.5 202.21875 186.652344 175.839844 166.09375 169.550781 C 166.09375 169.550781 195.824219 195.175781 200.804688 241.773438 C 207.421875 195.378906 238.035156 170.816406 238.035156 170.816406 C 217.269531 176.375 201.5 202.21875 201.5 202.21875 " fill-opacity="1" fill-rule="nonzero"/><path fill="#00609e" d="M 211.597656 177.097656 C 211.703125 171.207031 207.464844 166.355469 202.132812 166.261719 C 196.800781 166.167969 192.394531 170.867188 192.292969 176.757812 C 192.1875 182.648438 196.425781 187.5 201.757812 187.59375 C 207.089844 187.6875 211.496094 182.988281 211.597656 177.097656 " fill-opacity="1" fill-rule="nonzero"/><path fill="#36a5dd" d="M 214.765625 141.800781 L 197.3125 141.496094 L 197.007812 158.945312 L 214.457031 159.253906 L 214.765625 141.800781 " fill-opacity="1" fill-rule="nonzero"/><path fill="#36a5dd" d="M 223.644531 133.230469 L 214.917969 133.078125 L 214.765625 141.800781 L 223.488281 141.957031 L 223.644531 133.230469 " fill-opacity="1" fill-rule="nonzero"/><path fill="#00609e" d="M 240.871094 154.238281 L 232.148438 154.085938 L 231.992188 162.8125 L 240.71875 162.964844 L 240.871094 154.238281 " fill-opacity="1" fill-rule="nonzero"/><path fill="#ff0568" d="M 225.433594 150.71875 L 221.238281 150.644531 L 221.164062 154.835938 L 225.359375 154.910156 L 225.433594 150.71875 " fill-opacity="1" fill-rule="nonzero"/><path fill="#ff0568" d="M 266.53125 143.960938 L 258.480469 143.820312 L 258.339844 151.867188 L 266.386719 152.011719 L 266.53125 143.960938 " fill-opacity="1" fill-rule="nonzero"/><path fill="#f8b31a" d="M 251.273438 162.363281 L 247.078125 162.289062 L 247.007812 166.480469 L 251.199219 166.554688 L 251.273438 162.363281 " fill-opacity="1" fill-rule="nonzero"/><g clip-path="url(#3ecd3a3ba9)"><path fill="#ff0568" d="M 240.949219 130.390625 L 234.660156 130.277344 L 234.550781 136.566406 L 240.839844 136.675781 L 240.949219 130.390625 " fill-opacity="1" fill-rule="nonzero"/></g><path fill="#f8b31a" d="M 248.4375 139.21875 L 242.085938 139.105469 L 241.972656 145.457031 L 248.328125 145.570312 L 248.4375 139.21875 " fill-opacity="1" fill-rule="nonzero"/></svg>